<svg xmlns="http://www.w3.org/2000/svg" xmlns:xlink="http://www.w3.org/1999/xlink" viewBox="0 0 159.1 148.81"><defs><clipPath id="a"><ellipse cx="103.68" cy="77.08" rx="16.59" ry="18.89" transform="translate(-17.14 31.32) rotate(-15.88)" style="fill:none"/></clipPath><clipPath id="b"><ellipse cx="39.65" cy="69.69" rx="18.08" ry="15.94" transform="translate(-37.85 49.16) rotate(-45.53)" style="fill:none"/></clipPath></defs><path d="M25.21,128s19.63,18.79,51.43,20.6c52.13,3,64.52-23.54,64.52-23.54Z" style="fill:#ebe4e4"/><path d="M46.76,18.85S46.28,9.46,41.26,8C32.94,5.63,14.75,16.32,18,24.55A34.12,34.12,0,0,0,28.1,37.84Z" style="fill:#4a3838"/><path d="M41.77,21.2s-.39-4.45-3.26-5.19c-4.75-1.23-15.69,4-13.73,7.89s6.64,6,6.64,6Z" style="fill:#c2a891"/><path d="M41.19,22.88s-.37-4.25-3.11-5c-4.54-1.18-14.28,3.43-12.4,7.19a17.61,17.61,0,0,0,5.62,6.12Z" style="fill:#dec6b1"/><path d="M34,25.61c-5.66,5.25-8.15,14.76-14.69,26.18C9.69,68.65-2.17,79.51.34,94.84S23.47,138,71.85,144.34s79.18-23.12,83.69-37.28-2.67-18.31-6.24-39.17c-2.47-14.49-1.18-23.73-6-31.53-4.61-7.44-20.2-13.69-29.46-15.39a160.42,160.42,0,0,0-20.27-2s4.1-4.16,2.46-7.08c-1.07-1.89-5.71.3-8.82,2.08a.64.64,0,0,1-.83-.94c2.79-3.75,7.18-10.26,5.54-12-2.35-2.49-7,0-10.17,4.78s-3.75,7.69-6,7.6-2.42-8.62-5.42-7.73-.73,10.9-.73,10.9-8.43.26-16.73,1.33S38.81,21.19,34,25.61Z" style="fill:#fafafa"/><path d="M8,78.47c3,8.4,17,14.88,32,12,18.44-3.5,27.82-17.69,24.33-30s-20.76-14.7-35.6-8.58S5,70.07,8,78.47Z" style="fill:#4a3838"/><path d="M88.43,47.8c9.18-4.68,23.4.54,34.5,13.08,11.86,13.41,15.22,32.68,6.67,41.36s-30.93,9.28-44.49-8.34S77.52,53.37,88.43,47.8Z" style="fill:#4a3838"/><ellipse cx="103.68" cy="77.08" rx="16.59" ry="18.89" transform="translate(-17.14 31.32) rotate(-15.88)" style="fill:#fff"/><g style="clip-path:url(#a)"><ellipse cx="99.85" cy="82.6" rx="16.35" ry="15.43" transform="translate(-9.84 151.59) rotate(-71.77)" style="fill:#1c1212"/><circle cx="104.29" cy="72.48" r="11.66" style="fill:#fff;opacity:0.101960784313725"/></g><path d="M57.83,92.41c-1.82,2.35,3.39,5.86,5.07,6.26s6.71-2.59,6.44-4.79S59.66,90.06,57.83,92.41Z" style="fill:#1a1010"/><path d="M59.32,92.64c-.71.77,1.4,2,2.07,2.13s2.66-.8,2.53-1.54S60,91.87,59.32,92.64Z" style="fill:#fff"/><ellipse cx="103.68" cy="77.08" rx="16.59" ry="18.89" transform="translate(-17.14 31.32) rotate(-15.88)" style="fill:none;stroke:#1a1010;stroke-miterlimit:10;stroke-width:0.921394461672615px"/><path d="M37,37.38c.88,3,13.18-.4,12.13-4S36.08,34.41,37,37.38Z" style="fill:#ebe4e4"/><path d="M37.15,36c.88,3,13.18-.39,12.12-4S36.27,33,37.15,36Z" style="fill:#1a1010"/><path d="M97.91,33c-3.29,4.32,7,13.76,9.63,10.73S100.63,29.39,97.91,33Z" style="fill:#ebe4e4"/><path d="M98.37,31.62c-3.29,4.32,7,13.76,9.63,10.73S101.09,28,98.37,31.62Z" style="fill:#1a1010"/><circle cx="106.51" cy="69.06" r="3.55" style="fill:#fff"/><ellipse cx="39.65" cy="69.69" rx="18.08" ry="15.94" transform="translate(-37.85 49.16) rotate(-45.53)" style="fill:#fff"/><g style="clip-path:url(#b)"><ellipse cx="43.13" cy="76.65" rx="15.7" ry="14.75" transform="matrix(0.28, -0.96, 0.96, 0.28, -42.53, 96.6)" style="fill:#1c1212"/></g><ellipse cx="39.65" cy="69.69" rx="18.08" ry="15.94" transform="translate(-37.85 49.16) rotate(-45.53)" style="fill:none;stroke:#1c1212;stroke-miterlimit:10;stroke-width:0.951814189421068px"/><ellipse cx="41.82" cy="65.83" rx="9.17" ry="9.7" transform="translate(-28.87 98.79) rotate(-82.57)" style="fill:#fff;opacity:0.101960784313725"/><circle cx="42.63" cy="61.91" r="3.55" style="fill:#fff"/><path d="M81.41,103.45a2.39,2.39,0,0,0-.92-1.6.33.33,0,0,0-.47.07l0,.06a.2.2,0,0,0-.25.06,10.11,10.11,0,0,1-2.21,1.88,13.05,13.05,0,0,1-3,1.26,19.48,19.48,0,0,1-6.65.75,11.34,11.34,0,0,1-3-.55.28.28,0,0,0-.2,0,.25.25,0,0,0-.13,0h-.24a.37.37,0,0,0,0-.27c-.11-.36-.29-.69-.41-1a7.41,7.41,0,0,1-.32-1.14,14.38,14.38,0,0,1-.24-2.54,34.51,34.51,0,0,1,.35-5,.29.29,0,1,0-.57-.07,36.62,36.62,0,0,0-.41,5.23,13.64,13.64,0,0,0,.26,2.63,4.67,4.67,0,0,0,.88,2.18,10.32,10.32,0,0,1-2.21-.19,14.22,14.22,0,0,1-2.88-1,31.88,31.88,0,0,1-5.16-3.09c-.29-.2-.62.26-.34.47,2.64,1.88,5.47,3.77,8.66,4.35a6.35,6.35,0,0,0,2.64,0l0,0a14.73,14.73,0,0,0,6.19.57,17,17,0,0,0,6.67-1.84,6.41,6.41,0,0,0,2.6-2.22l.24.21.12.17a.22.22,0,0,1,.05.08l0,0a2,2,0,0,1,.2.68c.07.58,0,1.12.06,1.7a.28.28,0,0,0,.55,0A7.48,7.48,0,0,0,81.41,103.45Z"/><path d="M149.3,67.89c-2.47-14.49-1.18-23.73-6-31.53-2.74-4.42-9.34-8.42-16.19-11.29,1.91,1.85,4.09,4,6.61,6.46,8.57,8.43,14.39,25.79,5.16,42.8-5.66,10.42,3.94,17.29.14,31.34-3,11.14-12.35,20.3-32,26.29-13.32,4.07-10.12-1-47.33-5.82-29.39-3.84-32.31-1.76-40.28-7.29C9.08,111.7,7.16,107.27,2,100.79c6.13,15.71,27.2,38,69.82,43.55,48.37,6.31,79.18-23.12,83.69-37.28S152.87,88.75,149.3,67.89Z" style="fill:#ebe4e4;opacity:0.470588235294118"/><path d="M129.42,28.54s4.06-9.81,9.51-9.92c9-.18,24.53,15.48,19,22.9s-14.3,10.62-14.3,10.62A52.12,52.12,0,0,0,137.77,39,47.61,47.61,0,0,0,129.42,28.54Z" style="fill:#4a3838"/><path d="M136.23,32.59s2.11-6,4.72-6.11c4.32-.14,11.63,7.94,9,11.85A17.87,17.87,0,0,1,143.29,44Z" style="fill:#c2a891"/><path d="M137,33.47s1.37-4.5,3.77-4.58c4-.13,10.69,7.29,8.23,10.88A16.32,16.32,0,0,1,142.89,45Z" style="fill:#dec6b1"/></svg>