<svg xmlns="http://www.w3.org/2000/svg" viewBox="0 0 156.44 54.36"><path d="M4.15,30.92S5.34,35.74,17.39,34s23-7.51,24.79-12.2A12.23,12.23,0,0,0,39.93,9.14Z" style="fill:#43718a;opacity:0.290196078431373"/><path d="M114.87,26.16s-3.57,2.89-1.22,8.38,4.26,7.83,7.64,10.85c7.13,6.36,19.14,9.48,24.25,8.9,6-.67,6.07-1.5,7.39-4S114.87,26.16,114.87,26.16Z" style="fill:#43718a;opacity:0.290196078431373"/><path d="M4,31.45c-4.14-1.92-6.74-14.07.64-22.38A27.85,27.85,0,0,1,14.46,2C20.53-.63,27.29-.8,33,2.31c9.15,5,11.76,12.46,7.89,16.9S14,36.07,4,31.45Z" style="fill:#4a3838"/><path d="M150.6,52.71c4.55-1.13,9-12.73,2.69-22.4a30.57,30.57,0,0,0-9-8.93c-5.86-3.73-12.78-5.19-19.13-3.18-10.16,3.21-14,10.17-10.64,15.33S139.66,55.42,150.6,52.71Z" style="fill:#4a3838"/><path d="M33,2.31c-.34-.19-.68-.36-1-.52A16.54,16.54,0,0,1,34.6,8.27c1.46,8.83-6.92,15.34-20,19.47C7.69,29.93,3,27,.12,23.69c.44,3.83,2,6.88,3.91,7.76,10,4.62,33-7.79,36.87-12.24S42.16,7.28,33,2.31Z" style="fill:#3b2b2b"/><path d="M154.36,32.16c-.47,3.26-1.41,7.17-3.31,9.5-3.68,4.53-11.71,6.91-26.5-3.28-6.91-4.77-9.44-9.21-10.16-12.58a7.3,7.3,0,0,0,.11,7.73c3.32,5.16,25.17,21.89,36.1,19.18C154.86,51.65,159.07,41.4,154.36,32.16Z" style="fill:#3b2b2b"/></svg>