<svg xmlns="http://www.w3.org/2000/svg" viewBox="0 0 1839.41 396.45"><path d="M1839.33,227.44c-2-42.93-40.95-76-87-73.88a87.57,87.57,0,0,0-35.43,9.4c-2.7.17-5.37.44-8,.85-.28-.36-.62-.68-.91-1-18.86-27.76-52-45.93-89.49-45.88a122.11,122.11,0,0,0-12.62-43.25C1582.51,27.94,1531.4-2.51,1473.6.16a145.85,145.85,0,0,0-79.86,27.92,134.09,134.09,0,0,0-40.5,47.55,114.84,114.84,0,0,0-26.61-9.11,116.61,116.61,0,0,0-29.24-2.34c-46.61,2.16-85.16,31.1-99.26,70a97.74,97.74,0,0,0-5.72-13.72c-19.25-37.68-61.4-62.79-109.06-60.59a120.39,120.39,0,0,0-65.86,23,110.73,110.73,0,0,0-33.39,39.21A94.88,94.88,0,0,0,938,112.71c-33.81,1.56-62.48,20.22-76.8,46.55a91.23,91.23,0,0,0-49.57-14.33,100.65,100.65,0,0,0-10.4-35.67C782,71.58,739.87,46.47,692.2,48.67a120.35,120.35,0,0,0-65.85,23A110.76,110.76,0,0,0,593,110.9a94.88,94.88,0,0,0-46.05-9.43c-35.63,1.64-65.54,22.27-79,50.85-.13-.93-.25-1.86-.41-2.79-7.23-41.69-40.05-78.16-86.23-90.18a120.31,120.31,0,0,0-69.71,2.48A110.88,110.88,0,0,0,268,89.39a95,95,0,0,0-41.19-22.65C178.48,54.15,129.76,80.49,118,125.56c-.4,1.52-.67,3.05-1,4.57a53,53,0,0,0-7,6.93C87,132.69,64.37,140.46,50,156c-.76-.25-1.52-.51-2.31-.72C27,149.93,6.12,161.22,1.1,180.53s7.7,39.35,28.43,44.74a41.07,41.07,0,0,0,14.92,1A66.2,66.2,0,0,0,74.27,251.6a60.47,60.47,0,0,0,11.56,10.64c2.12,25.55,21.3,48.63,49.17,55.88A66.56,66.56,0,0,0,189.65,309c15.8,24.79,41.43,44.24,73.18,52.5a123.57,123.57,0,0,0,81.63-6.41c6.85,18.41,23,33.63,44.45,39.21,33.74,8.78,67.73-9.59,75.91-41,.29-1.15.47-2.3.7-3.45,2.84-.55,5.63-1.22,8.37-2,8,7.62,18.3,19,57.11,24.72,26.53,3.93,51.32-2.42,67.2-17.78A125.66,125.66,0,0,0,744.63,342c12,15.56,31.93,25.31,54.07,24.29,22.37-1,41.5-12.8,51.94-29.68a61.7,61.7,0,0,0,10.62,4.6C870.85,365,896,381.35,924.78,380a66.61,66.61,0,0,0,49.48-24.94c22.43,19,52.67,30,85.45,28.47a123.63,123.63,0,0,0,76.07-30.31c12,15.56,31.93,25.31,54.06,24.29a66.29,66.29,0,0,0,32.55-10.18,81.07,81.07,0,0,0,58.92,21c24.78-1.14,46.36-12.88,60-30.24,27.2,23,63.88,36.36,103.62,34.52a149.85,149.85,0,0,0,92.25-36.75c14.55,18.87,38.72,30.7,65.57,29.45,42.23-1.95,75-35.44,73.18-74.79-.07-1.44-.27-2.84-.43-4.25,3.09-1.66,6.09-3.44,9-5.37,12,5.94,28,15.41,75,8.12S1841.31,270.37,1839.33,227.44Z" style="fill:#c1f0ff"/></svg>