<svg xmlns="http://www.w3.org/2000/svg" viewBox="0 0 348.02 101.88"><path d="M178.54,2.36c-16.81,5-32.07,17.51-36.38,33.39-9.59-3.8-20.33-5.94-30.21-3S93.53,44.85,94,55.16c-8.81-1.9-17.78-3.8-26.74-2.95-8.59.82-18,4.78-23.09,12.05a10.56,10.56,0,0,0-2.08,7.83c-6.88-4.69-16-5.78-24.17-4.86-4.68.53-9.42,1.9-13,5S-.9,80.23.36,84.77c2.2,7.93,12.32,10,20.53,10.5l45.57,3.09c42.13,2.85,84.53,5.7,126.5,1.07,3.44-.38,7.44-1.21,8.86-4.36,1.32-2.91-.48-6.48-3.17-8.21s-6-2.1-9.2-2.41l57.69.16c15.39,0,30.78.09,46.17-.06,16.17-.16,32.68-.6,47.86-6.19,2.95-1.08,6.21-2.81,6.77-5.9s-1.88-5.85-4.73-6.87-6-.67-9-.3c7.66-.35,10.36-11.94,5.23-17.64s-14-6.13-21.44-4.3-14.41,5.49-22,6.58c-5.53-10.55-16.79-18.34-28.74-19-7.14-.39-32.29,4-34.42,13C236.92,26.83,225,8.28,208.43,2.35,199.25-.93,188.62-.63,178.54,2.36Z" style="fill:#fff"/><path d="M44.13,64.26a10.56,10.56,0,0,0-2.08,7.83c-6.88-4.69-16-5.78-24.17-4.86-4.68.53-9.42,1.9-13,5S-.9,80.23.36,84.77c2.2,7.93,12.32,10,20.53,10.5l45.57,3.09c42.13,2.85,84.53,5.7,126.5,1.07,3.44-.38,7.44-1.21,8.86-4.36,1.32-2.91-.48-6.48-3.17-8.21s-6-2.1-9.2-2.41l57.69.16c15.39,0,30.78.09,46.17-.06,16.17-.16,32.68-.6,47.86-6.19,2.95-1.08,6.21-2.81,6.77-5.9s-1.88-5.85-4.73-6.87-6-.67-9-.3c7.66-.35,10.36-11.94,5.23-17.64s-14-6.13-21.44-4.3-14.41,5.49-22,6.58a36.18,36.18,0,0,0-9.57-11.44A52.84,52.84,0,0,1,264.77,61c-12.88,7-30.52,7.68-44.31,2.71a50.94,50.94,0,0,0,12.8-20.81,5.82,5.82,0,0,0-.4,1.1,32,32,0,0,0-1.5-18.92c-2.38,8.47-5.67,16.68-11.19,23.46-7.24,8.9-19.14,14.84-30.27,12.08A31.39,31.39,0,0,1,176.57,53c-11.95-10.89-17-29-12.45-44.21-10.54,6.39-18.94,15.85-22,27h0a39.94,39.94,0,0,0,12.42,28.93,88.21,88.21,0,0,1-53.34-.82,39.27,39.27,0,0,0,20.09,14,75.33,75.33,0,0,1-52.41-1.11c-4.61-1.84-9.43-4.58-11.06-9.27s.63-10.17,4.29-13.63c.38-.36.78-.7,1.19-1C55.93,54.29,48.49,58.07,44.13,64.26Z" style="fill:#f5fbff"/><path d="M334.23,65.29c7.66-.35,10.36-11.94,5.23-17.64s-14-6.13-21.44-4.3c2.47,0,5.54.32,7.7,1.5A8.08,8.08,0,0,1,330,50.57a8.93,8.93,0,0,1-.47,3.9c-1.84,5.6-7.09,9.47-12.62,11.5-8.28,3-17.37,2.73-26.19,2.38C305.3,70.32,319.52,66,334.23,65.29Z" style="fill:#dff2fd"/><path d="M198.65,86.86c2.69,1.73,4.49,5.3,3.17,8.21-1.42,3.15-5.42,4-8.86,4.36-42,4.63-84.37,1.78-126.5-1.07L20.89,95.27C12.68,94.72,2.56,92.7.36,84.77c-1.26-4.54.92-9.54,4.51-12.59-1.67,3.27-.24,7.29,2.26,10s6,4.14,9.54,5.26c15.94,5.08,33.06,4.46,49.77,3.78a17.29,17.29,0,0,1-12.72-8.93c21.17,9.48,45.06,10.3,68.25,11,14.09.41,28.37.8,42.11-2.37a31.66,31.66,0,0,1-18.57-5.7C163.39,88.87,181,91.51,198.65,86.86Z" style="fill:#dff2fd"/><path d="M189.45,84.45l57.69.16c15.39,0,30.78.09,46.17-.06,16.17-.16,32.68-.6,47.86-6.19,2.95-1.08,6.21-2.81,6.77-5.9s-1.88-5.85-4.73-6.87c.07,2.35-2,4.31-4,5.56a19.05,19.05,0,0,1-6.66,2.22c-26.06,5.11-52.83,5-79.38,4.8-10.35-.06-21.39-.33-29.95-6.15C213.24,79.26,201.79,84.23,189.45,84.45Z" style="fill:#dff2fd"/></svg>