<svg xmlns="http://www.w3.org/2000/svg" viewBox="0 0 117.09 56.72"><path d="M103.71,33A21.79,21.79,0,0,0,72.07,16.75,26.66,26.66,0,0,0,47,0,26.68,26.68,0,0,0,23,18.3c-6.76-.4-13.11,6-12.72,12.72C5.14,28.69-1,34.69.15,40.19S8,48.86,13.43,47.52a48.66,48.66,0,0,0,48.43,4.91C74.11,60.56,92.91,55.89,99.94,43c-.93,1.71,13.71,4.49,16.56-1.74C119.72,34.16,109.11,29.89,103.71,33Z" style="fill:#fff"/><path d="M.15,40.19C1.36,45.7,8,48.86,13.43,47.52a48.66,48.66,0,0,0,48.43,4.91C74.11,60.56,92.91,55.89,99.94,43c-.93,1.71,13.71,4.49,16.56-1.74,3.22-7.06-7.39-11.33-12.79-8.21A22.18,22.18,0,0,0,92.1,16.7a21.5,21.5,0,0,0-5.5-1.91,21.53,21.53,0,0,1,4.46,8.66c1,4.41-.46,9.6-4.34,11.9-2.71,1.6-6,1.57-9.19,1.42-3.7-.18-8.11-.94-9.57-4.35a16.08,16.08,0,0,1-.77-3.67A13.66,13.66,0,0,0,53.57,17.89c3.26.39,5.39,4.18,4.72,7.4S54.81,31,51.71,32.07s-6.49,1.06-9.78.88c-5.5-.31-11.58-1.3-15-5.62a8.81,8.81,0,0,1-10.83,1.38,8.64,8.64,0,0,1-3.41-4.47,2.15,2.15,0,0,1-.11-.61A11.57,11.57,0,0,0,10.27,31C5.14,28.69-1,34.69.15,40.19Z" style="fill:#f5fbff"/><path d="M99.94,43c-.93,1.71,13.71,4.49,16.56-1.74,3.22-7.06-7.39-11.33-12.79-8.21a25.81,25.81,0,0,1,7.75.1c1.38.26,2.91.78,3.47,2.07a3.64,3.64,0,0,1,.24,1.67,6.22,6.22,0,0,1-2.63,4.87,9.72,9.72,0,0,1-4.88,1.12C105.38,42.93,102.21,43,99.94,43Z" style="fill:#dff2fd"/><path d="M99.94,43c-7,12.93-25.83,17.6-38.08,9.47a48.66,48.66,0,0,1-48.43-4.91C8,48.86,1.36,45.7.15,40.19s5-11.5,10.12-9.17c-3.7.33-6.18,4.76-5.09,8.31a6.56,6.56,0,0,0,9,3.62,16.56,16.56,0,0,1-1.14-6.34c1.43,3.13,5.39,4.13,8.83,4.22a34.87,34.87,0,0,0,9.86-1.13,9.85,9.85,0,0,1-8.6,7.68c6,3.36,13,4.08,19.89,4,4.61,0,9.4-.44,13.4-2.72s7-6.92,6-11.43a10.46,10.46,0,0,1,2.18,12.36,26.16,26.16,0,0,0,18.25,2A42.7,42.7,0,0,0,99.94,43Z" style="fill:#dff2fd"/></svg>