<svg xmlns="http://www.w3.org/2000/svg" viewBox="0 0 348.27 143.01"><path d="M336.69,88.13a29.15,29.15,0,0,0-28.33-2.58c.67-17-3.52-35-15.4-47.13S260.4,22,246.62,32C235,11.49,211.13-1.39,187.62.12s-45.51,17.32-54.44,39.12C94.46,27.3,54.56,52.56,42,89.55c-9.85-1.15-20.27-2.22-29.32,1.84S-3,106.64,1.41,115.51a22.63,22.63,0,0,0,6.39,7.22c18.4,14.75,43.4,17.47,66.91,19.18C90.27,143,106,144,121.38,141.14s30.44-9.81,40.17-22c6.73,10.15,20.44,12.37,32.56,13.54,36.66,3.51,74.05,5.89,110.51-.76,12.5-2.28,28.57-3,38-12.68C353.05,108.47,347.86,96,336.69,88.13Z" style="fill:#fff"/><path d="M42,89.55c-9.85-1.15-20.27-2.22-29.32,1.84S-3,106.64,1.41,115.51a22.63,22.63,0,0,0,6.39,7.22c18.4,14.75,43.4,17.47,66.91,19.18C90.27,143,106,144,121.38,141.14s30.44-9.81,40.17-22c6.73,10.15,20.44,12.37,32.56,13.54,36.66,3.51,74.05,5.89,110.51-.76,12.5-2.28,28.57-3,38-12.68,10.44-10.76,5.25-23.25-5.92-31.1a29.15,29.15,0,0,0-28.33-2.58c.54-13.62-2.06-27.87-9.23-39.26,2,7,2.23,14.3-.21,21.05-5.32,14.71-21.11,20-34.43,12.91-11.61-6.17-19.07-18.84-20.36-31.93-2.88,25.31-24.65,47.22-49.95,50.24s-51.62-13.12-60.39-37A42,42,0,0,1,76.34,93c-5.93-2.45-11.52-6.57-13.93-12.51-3.4-8.37.31-18,5.48-25.38a66.93,66.93,0,0,1,4.45-5.65A80.68,80.68,0,0,0,42,89.55Z" style="fill:#f5fbff"/><path d="M161.55,119.13c6.73,10.15,20.44,12.37,32.56,13.54,36.66,3.51,74.05,5.89,110.51-.76,12.5-2.28,28.57-3,38-12.68,10.44-10.76,5.25-23.25-5.92-31.1,2.27,10.08-5.2,20.54-14.58,24.86s-20.16,4.07-30.47,3.43a29.48,29.48,0,0,0,13.82-18.28c-18,17.78-48.31,21.44-70,8.46-3.32,6.56-10.12,10.59-16.91,13.42C200.14,127.68,179.17,128.41,161.55,119.13Z" style="fill:#dff2fd"/><path d="M1.41,115.51a22.63,22.63,0,0,0,6.39,7.22c18.4,14.75,43.4,17.47,66.91,19.18C90.27,143,106,144,121.38,141.14s30.44-9.81,40.17-22c-10.53-4.19-20.52-13.6-25-24,2.12,8.61-3.51,17.7-11.22,22.08s-17,5-25.84,4.64c-17.93-.66-36.91-5.32-49-18.61,4.32,11.5,14.78,19.93,26.31,24.17s24.1,4.74,36.37,4.13c-4.25,2.81-9.46,3.68-14.52,4.23C66.19,139.32,29.47,132.21,1.41,115.51Z" style="fill:#dff2fd"/></svg>