<svg xmlns="http://www.w3.org/2000/svg" viewBox="0 0 184.28 88.11"><path d="M17.91,53.69a11.35,11.35,0,0,1,6.17-.1c-2.17-12.13,9-25.53,21.63-18.9.6-5.52,3-11,7.51-14.34s11.07-3.93,15.55-.64c-.15-6,3.41-11.79,8.39-15.19S88.35-.14,94.37,0a30.51,30.51,0,0,1,18.49,6.65c6.06,5,7.4,11.89,7.33,19.55a19.49,19.49,0,0,1,9.5-.33c8.82,2.29,10.93,14.13,9.1,21.79,5.44-1.38,11.22-2.59,16.59-.94s9.94,7.17,8.57,12.61c3-1.42,6.17-2.85,9.51-3.17s7,.64,9.09,3.28c2.82,3.55,1.87,8.91-.59,12.72-3.28,5.1-8.82,8.46-14.67,10a33.58,33.58,0,0,1-29.57-6.36c1.51,1.25-10.42,8.78-11.57,9.22-4.85,1.86-9.77,3.79-15,2.76a24.92,24.92,0,0,1-14.33-9.16c-11.37,10-30,10.49-41.87,1-10.59,9.59-28.41,9.78-39.2.4-4.2,1.9-9.56,2.9-13.11,0a7.61,7.61,0,0,1-1.54-9.59,7.61,7.61,0,0,1,9.31-2.76A11.47,11.47,0,0,1,13.05,56.6,11.32,11.32,0,0,1,17.91,53.69Z" style="fill:#fff"/><path d="M120.19,26.21c.07-7.66-1.27-14.57-7.33-19.55A30.51,30.51,0,0,0,94.37,0c-6-.15-12.23,1.11-17.21,4.51,10.09-1.94,21.33-2,29.74,3.93a18.67,18.67,0,0,1,5.4,5.62,17.55,17.55,0,0,1,2.32,8.43,23.64,23.64,0,0,1-8.36,18,32,32,0,0,1-18.79,7.35,28.75,28.75,0,0,0,20.59-4.09C114.08,39.91,120.11,33.38,120.19,26.21Z" style="fill:#f5fbff"/><path d="M68.77,19.71c-4.48-3.29-11.09-2.67-15.55.64s-6.91,8.82-7.51,14.34C45.32,38.4,49,41.38,52.4,43a17.89,17.89,0,0,0,10.94,1.1c-3.65-.2-6.73-3-8.3-6.32a14.1,14.1,0,0,1,.58-13.39C58.11,20.43,64.2,18.8,68.77,19.71Z" style="fill:#f5fbff"/><path d="M24.08,53.59a11.44,11.44,0,0,0-11,3,11.47,11.47,0,0,0-2.68,11.11,7.61,7.61,0,0,0-9.31,2.76A7.61,7.61,0,0,0,2.6,80.06C6.15,83,11.51,82,15.71,80.1c10.79,9.38,28.61,9.19,39.2-.4,11.85,9.46,30.5,9,41.87-1a24.92,24.92,0,0,0,14.33,9.16c5.27,1,10.19-.9,15-2.76,1.15-.44,13.08-8,11.57-9.22a33.58,33.58,0,0,0,29.57,6.36c5.85-1.58,11.39-4.94,14.67-10,2.46-3.81,3.41-9.17.59-12.72-2.08-2.64-5.74-3.61-9.09-3.28S167,57.92,164,59.34c1.37-5.44-3.21-11-8.57-12.61s-11.15-.44-16.59.94c1.83-7.66-.28-19.5-9.1-21.79a16.39,16.39,0,0,0-5.63-.35c1.57,6.36,1.27,13.37-2.11,18.94-3.58,5.89-11.08,9.6-17.65,7.5a30.22,30.22,0,0,1-46-4c-4.73,3.54-12.08,3.55-16.24-.65-4.3-4.35-2.49-9-.45-13.69,0-.12.09-.23.13-.35C30.84,31,22.15,42.77,24.08,53.59Z" style="fill:#f5fbff"/><path d="M17.91,53.69a11.35,11.35,0,0,1,6.17-.1C22.15,42.77,30.84,31,41.7,33.23a15.08,15.08,0,0,0-10.29,5.89A18.28,18.28,0,0,0,28,50.57a11.69,11.69,0,0,0,.94,4.61c1.75,3.79,6,5.71,9.93,7-3.65,1-7.46-.77-10.6-2.89S21.6,54.52,17.91,53.69Z" style="fill:#dff2fd"/><path d="M137.72,75.85a33.58,33.58,0,0,0,29.57,6.36c5.85-1.58,11.39-4.94,14.67-10,2.46-3.81,3.41-9.17.59-12.72.37,7.18-6.34,13.54-13.16,15.81s-14.39.95-21-1.84a23.29,23.29,0,0,1-8.57-5.64,11.27,11.27,0,0,1-3-9.53C134.52,63.6,135.79,70.35,137.72,75.85Z" style="fill:#dff2fd"/><path d="M96.78,78.67c-11.37,10-30,10.49-41.87,1-10.59,9.59-28.41,9.78-39.2.4-4.2,1.9-9.56,2.9-13.11,0a7.61,7.61,0,0,1-1.54-9.59c2.07,5.85,10.72,7.91,15.59,4a12.87,12.87,0,0,1-2.6-7.6,25.9,25.9,0,0,0,22.86,7.34,26,26,0,0,0,18.78-15,40.36,40.36,0,0,1-1.35,14.55A37,37,0,0,0,96.78,78.67Z" style="fill:#dff2fd"/></svg>