<svg xmlns="http://www.w3.org/2000/svg" xmlns:xlink="http://www.w3.org/1999/xlink" viewBox="0 0 106.32 106.36"><defs><clipPath id="a"><rect x="1.92" width="102.76" height="101.92" rx="39.18" style="fill:none"/></clipPath><radialGradient id="b" cx="592.07" cy="562.89" r="98.03" gradientTransform="translate(-257.02 -244.48) scale(0.52 0.52)" gradientUnits="userSpaceOnUse"><stop offset="0" stop-color="#fff"/><stop offset="1" stop-color="#36cef7"/></radialGradient><radialGradient id="c" cx="-1062.98" cy="-771.05" r="230.25" gradientTransform="translate(989.72 715.36) scale(0.88 0.84)" gradientUnits="userSpaceOnUse"><stop offset="0.12" stop-color="#fff" stop-opacity="0"/><stop offset="1" stop-color="#fff"/></radialGradient><radialGradient id="d" cx="-1062.98" cy="-771.05" r="230.25" xlink:href="#c"/><radialGradient id="e" cx="-1062.98" cy="-771.05" r="230.25" xlink:href="#c"/><radialGradient id="f" cx="-1062.98" cy="-771.05" r="230.25" xlink:href="#c"/><radialGradient id="g" cx="-1062.98" cy="-771.05" r="230.25" xlink:href="#c"/><radialGradient id="h" cx="-1062.98" cy="-771.05" r="230.25" xlink:href="#c"/><radialGradient id="i" cx="-1062.98" cy="-771.05" r="230.25" xlink:href="#c"/><radialGradient id="j" cx="-1062.98" cy="-771.05" r="230.25" xlink:href="#c"/><radialGradient id="m" cx="-1062.98" cy="-771.05" r="230.25" xlink:href="#c"/><radialGradient id="n" cx="-1062.98" cy="-771.05" r="230.25" xlink:href="#c"/><radialGradient id="p" cx="-1062.98" cy="-771.05" r="230.25" xlink:href="#c"/><clipPath id="q"><ellipse cx="66.91" cy="53.48" rx="7.48" ry="6.56" transform="translate(9.64 117.17) rotate(-86.67)" style="fill:none"/></clipPath><clipPath id="r"><ellipse cx="43.94" cy="42.38" rx="7.16" ry="6.31" transform="translate(-14.23 23.87) rotate(-26.32)" style="fill:none"/></clipPath><clipPath id="s"><path d="M45.13,56.27s.19,1.06,3.21,2.45a16,16,0,0,0,5.38,1.48s-3.4,8-6.45,7.81S45.13,56.27,45.13,56.27Z" style="fill:none"/></clipPath></defs><rect y="4.43" width="106.32" height="101.92" rx="39.18" style="fill:#50b3d4"/><g style="clip-path:url(#a)"><rect x="1.92" y="-0.84" width="102.76" height="102.76" style="fill:url(#b)"/><path d="M10.73,100.68a27.68,27.68,0,0,1,.38-11.11L1.92,94.26v7.66H10.1l.78-.6C10.82,101.11,10.77,100.9,10.73,100.68Z" style="fill:url(#c)"/><path d="M71.73,70.94s0,.51.12,1.4l32.83,9.4V72.18L60.55,68Z" style="fill:url(#d)"/><path d="M18.39,72.46c.41-.59.83-1.17,1.24-1.73L1.92,72.42v10l12.93-3.7A48.07,48.07,0,0,1,18.39,72.46Z" style="fill:url(#e)"/><path d="M71,96.46l3.09,5.46H84.28L72,87.7A66.73,66.73,0,0,1,71,96.46Z" style="fill:url(#f)"/><path d="M72.21,81.09,99,101.92h5.65V93L72.09,76.34C72.15,77.74,72.2,79.35,72.21,81.09Z" style="fill:url(#g)"/><path d="M29.29,60.16,1.92,52.33v10l22.87,2.18C26.84,62.35,28.53,60.83,29.29,60.16Z" style="fill:url(#h)"/><polygon points="55.55 66.64 55.88 66.72 104.68 41.83 104.68 28.48 55.55 66.64" style="fill:url(#i)"/><polygon points="54.87 66.45 76.2 -0.84 61.78 -0.84 54.67 66.4 54.87 66.45" style="fill:url(#j)"/><polygon points="57.39 67.13 104.68 62.61 104.68 53.06 56.41 66.87 57.39 67.13" style="fill:url(#j)"/><path d="M55.28,66.57l38-44.13a6.65,6.65,0,0,1-1.31-1.71,3.26,3.26,0,0,1-.83.11,3.37,3.37,0,0,1,0-6.73,3.77,3.77,0,0,1,.83.1,6.84,6.84,0,0,1,6-3.59,6.66,6.66,0,0,1,2.57.51,9,9,0,0,1,4.16-3.93v-8H93.14L55.07,66.51Z" style="fill:url(#d)"/><path d="M52.57,65.85,7.89,31.15a10.54,10.54,0,0,1-4.68,1.11,10.9,10.9,0,0,1-1.29-.08v8.35L50.39,65.27Z" style="fill:url(#m)"/><path d="M26.3,26.91a4,4,0,0,1-1.1-.16,10.2,10.2,0,0,1-2.62,3.46L53.43,66.07l.46.13L30.19,24.28A4.41,4.41,0,0,1,26.3,26.91Z" style="fill:url(#n)"/><path d="M1.92,4.75a10.88,10.88,0,0,1,1.29-.09c4.57,0,8.54,3,10.55,7.33a8,8,0,0,1,3.42-.78,9,9,0,0,1,8,5.52,2.88,2.88,0,0,1,.65-.13L16-.84H1.92Z" style="fill:url(#n)"/><polygon points="54.46 66.35 47.35 -0.84 32.93 -0.84 54.21 66.28 54.46 66.35" style="fill:url(#p)"/><path d="M20.49,46.21c-3.95-3.4-10-1.52-12,4.42s2.86,13.53,6.09,17.08c5.25,5.75,13.33,9,16.28,6.87s3.56-6.06,1-9.51-6.52-5.75-8.32-9.68S24.44,49.62,20.49,46.21Z" style="fill:#4a3838"/><ellipse cx="15.08" cy="54.24" rx="4.85" ry="4.1" transform="translate(-5.27 1.75) rotate(-5.65)" style="fill:#dec6b1"/><circle cx="18.81" cy="48.73" r="1.28" style="fill:#dec6b1"/><circle cx="12.33" cy="48.62" r="1.28" style="fill:#dec6b1"/><circle cx="15.73" cy="47.26" r="1.28" style="fill:#dec6b1"/><path d="M87.86,72.71c5-.23,8.39,4.73,6.44,10.39s-10.09,8.49-14.61,9.25c-7.32,1.23-15.28-1.1-16.26-4.41s.89-6.65,4.83-7.74,8.28-.48,11.95-2.37S82.9,73,87.86,72.71Z" style="fill:#4a3838"/><ellipse cx="87.21" cy="81.92" rx="3.91" ry="4.63" transform="translate(-32.27 88.33) rotate(-46.28)" style="fill:#dec6b1"/><circle cx="87.64" cy="75.59" r="1.22" style="fill:#dec6b1"/><circle cx="92.57" cy="79.32" r="1.22" style="fill:#dec6b1"/><circle cx="90.82" cy="76.3" r="1.22" style="fill:#dec6b1"/><path d="M72.09,76.34,54.57,67.4,29.29,60.16c-.76.67-2.45,2.19-4.5,4.39a71.43,71.43,0,0,0-5.16,6.18c-.41.56-.83,1.14-1.24,1.73a48.07,48.07,0,0,0-3.54,6.3,51.24,51.24,0,0,0-3.74,10.81,27.68,27.68,0,0,0-.38,11.11c0,.22.09.43.15.64a5.26,5.26,0,0,0,.18.6H69.51A35.32,35.32,0,0,0,71,96.46a66.73,66.73,0,0,0,1-8.76c.13-2.3.18-4.54.17-6.61C72.2,79.35,72.15,77.74,72.09,76.34Z" style="fill:#fafafa"/><path d="M31,62.28a34.31,34.31,0,0,0,16.54,14.4c19.1,7.9,27.18-.39,27.18-.39Z" style="fill:#ebe4e4"/><path d="M53.22,24.31s1-3.58-.64-4.77c-2.81-2-11-.35-10.84,3.15a13.49,13.49,0,0,0,2,6.28Z" style="fill:#4a3838"/><path d="M51.05,24.53s.43-1.71-.54-2.36c-1.62-1.08-6.39-.56-6.16,1.16a6,6,0,0,0,1.7,3.11Z" style="fill:#c2a891"/><path d="M50.61,25.08s.42-1.63-.51-2.26c-1.55-1-5.79-.57-5.58,1.08a7.07,7.07,0,0,0,1.31,3Z" style="fill:#dec6b1"/><path d="M84.46,39.57s2.34-3.11,4.39-2.44c3.41,1.12,7.16,9,4.13,11a14.14,14.14,0,0,1-6.52,2.21Z" style="fill:#4a3838"/><path d="M86,42s1.57-2,2.56-1.66c1.63.51,3.31,4.48,1.8,5.59a7.08,7.08,0,0,1-3.21,1.26Z" style="fill:#c2a891"/><path d="M86.19,42.43s1.1-1.5,2-1.22c1.5.47,3,4.12,1.65,5.14A6.41,6.41,0,0,1,86.9,47.5Z" style="fill:#dec6b1"/><path d="M47.58,25.17c-2.8,1.23-5,4.46-8.9,7.87C32.88,38.09,27,40.6,26,46.66s3,19.15,20.28,27.81,32.61,1.67,36.14-3S83.77,64.25,85.16,56c1-5.74,2.65-9,1.86-12.57-.76-3.38-5.77-7.75-9-9.59a64.22,64.22,0,0,0-7.31-3.41s2.07-1,1.84-2.32c-.15-.85-2.17-.63-3.57-.37a.25.25,0,0,1-.18-.46c1.53-1,4-2.9,3.63-3.77-.55-1.23-2.62-.9-4.42.46S65.59,26.35,64.77,26s.21-3.53-1-3.59-1.69,4-1.69,4-3.18-1-6.42-1.68S49.94,24.14,47.58,25.17Z" style="fill:#fafafa"/><path d="M64.79,40.71c-5.16-.38-8.44,3.18-7.9,9,.2,2.17,2.17,6.27,3.31,9.23,2.24,5.82,4.47,10.63,8.63,10.16,5.86-.66,9.27-8.13,8.09-15.93C75.46,43.45,68.65,41,64.79,40.71Z" style="fill:#4a3838"/><ellipse cx="66.91" cy="53.48" rx="7.48" ry="6.56" transform="translate(9.64 117.17) rotate(-86.67)" style="fill:#fff"/><path d="M28.05,45.72c.21,6.25,8.75,1.8,15.45,3.9,6.28,2,12.21-.86,12.53-7.88.25-5.48-6.58-9.3-11.08-9s-10.18,3.47-10.18,3.47S27.86,40.44,28.05,45.72Z" style="fill:#4a3838"/><g style="clip-path:url(#q)"><ellipse cx="65.46" cy="53.63" rx="6.47" ry="6.11" transform="translate(-16.91 73) rotate(-52.55)" style="fill:#1c1212"/><circle cx="68.44" cy="50.42" r="4.61" style="fill:#fff;opacity:0.101960784313725"/></g><path d="M47.78,53.24c-1,.64.5,2.63,1.08,3s2.84-.1,3-1S48.77,52.6,47.78,53.24Z" style="fill:#1a1010"/><path d="M48.3,53.52c-.36.19.27.92.5,1.07s1.1,0,1.15-.25S48.67,53.32,48.3,53.52Z" style="fill:#fff"/><ellipse cx="66.91" cy="53.48" rx="7.48" ry="6.56" transform="translate(9.64 117.17) rotate(-86.67)" style="fill:none;stroke:#1a1010;stroke-miterlimit:10;stroke-width:0.364677447232753px"/><path d="M47.14,30c0,1.23,5,1.57,5,.1S47.2,28.73,47.14,30Z" style="fill:#ebe4e4"/><path d="M47.4,29.45c-.06,1.22,5,1.57,5,.1S47.46,28.22,47.4,29.45Z" style="fill:#1a1010"/><path d="M72.66,36.48c-1.52,1.52,2,5.77,3.2,4.73S73.92,35.22,72.66,36.48Z" style="fill:#ebe4e4"/><path d="M72.92,36c-1.53,1.52,2,5.78,3.19,4.73S74.18,34.72,72.92,36Z" style="fill:#1a1010"/><circle cx="69.92" cy="49.2" r="1.4" style="fill:#fff"/><ellipse cx="43.94" cy="42.38" rx="7.16" ry="6.31" transform="translate(-14.23 23.87) rotate(-26.32)" style="fill:#fff"/><g style="clip-path:url(#r)"><ellipse cx="44.64" cy="43.79" rx="6.22" ry="5.84" transform="translate(-16.92 54.74) rotate(-54.53)" style="fill:#1c1212"/></g><ellipse cx="43.94" cy="42.38" rx="7.16" ry="6.31" transform="translate(-14.23 23.87) rotate(-26.32)" style="fill:none;stroke:#1c1212;stroke-miterlimit:10;stroke-width:0.376717229456623px"/><ellipse cx="45.56" cy="39.57" rx="3.63" ry="3.84" transform="translate(-10.24 62.55) rotate(-63.36)" style="fill:#fff;opacity:0.101960784313725"/><circle cx="46.37" cy="38.21" r="1.4" style="fill:#fff"/><path d="M45.13,56.27A8.68,8.68,0,0,0,48.28,59a10.93,10.93,0,0,0,5.44,1.25s-3.4,8-6.45,7.81S45.13,56.27,45.13,56.27Z" style="fill:#4f1f1f"/><g style="clip-path:url(#s)"><path d="M45.26,62.45s.36-.7,2.87.4a16.87,16.87,0,0,1,4.26,2.71s-2.81,5.5-5.69,4.18S45.26,62.45,45.26,62.45Z" style="fill:#943434"/></g><path d="M55.15,60.43a.89.89,0,0,0-.14-.71.13.13,0,0,0-.18,0l0,0a.08.08,0,0,0-.1,0,4.25,4.25,0,0,1-1.07.42,5.43,5.43,0,0,1-1.27.08,7.58,7.58,0,0,1-2.58-.59A4.41,4.41,0,0,1,48.73,59a.11.11,0,0,0-.07,0l0,0-.08,0a.19.19,0,0,0,0-.09c0-.15,0-.3,0-.44a3.59,3.59,0,0,1,0-.47,5.61,5.61,0,0,1,.24-1,12.66,12.66,0,0,1,.78-1.81A.12.12,0,1,0,49.4,55a14.7,14.7,0,0,0-.83,1.91,6,6,0,0,0-.25,1,1.94,1.94,0,0,0,0,.93,3.38,3.38,0,0,1-.8-.36,5.17,5.17,0,0,1-1-.74,13.49,13.49,0,0,1-1.53-1.83c-.08-.11-.26,0-.18.13a8.8,8.8,0,0,0,2.67,2.76,2.62,2.62,0,0,0,1,.35h0a5.78,5.78,0,0,0,2.24,1,6.6,6.6,0,0,0,2.73.18,2.55,2.55,0,0,0,1.26-.49s.05.08.06.11l0,.08v.06a.62.62,0,0,1,0,.27c0,.23-.14.43-.2.65a.11.11,0,0,0,.2.07A2.64,2.64,0,0,0,55.15,60.43Z"/><path d="M26.3,16.56c2.47,0,4.48,2.32,4.48,5.18a5.75,5.75,0,0,1-.59,2.54L53.89,66.2l.32.08L32.93-.84H16L25.85,16.6A3.42,3.42,0,0,1,26.3,16.56Z" style="fill:none"/><polygon points="54.67 66.4 61.78 -0.84 47.35 -0.84 54.46 66.35 54.67 66.4" style="fill:none"/><path d="M104.68,28.48v-5a8.85,8.85,0,0,1-1.88-1.17,6.86,6.86,0,0,1-9.56.12l-38,44.13.27.07Z" style="fill:none"/><path d="M22.58,30.21a8.28,8.28,0,0,1-5.4,2,8.54,8.54,0,0,1-6.44-3.08,12,12,0,0,1-2.85,2l44.68,34.7.86.22Z" style="fill:none"/><polygon points="55.07 66.51 93.14 -0.84 76.2 -0.84 54.87 66.45 55.07 66.51" style="fill:none"/><polygon points="60.55 67.97 104.68 72.18 104.68 62.61 57.39 67.13 60.55 67.97" style="fill:none"/><path d="M69.51,101.92h4.58L71,96.46A35.32,35.32,0,0,1,69.51,101.92Z" style="fill:none"/><path d="M14.85,78.76,1.92,82.46v11.8l9.19-4.69A51.24,51.24,0,0,1,14.85,78.76Z" style="fill:none"/><path d="M72,87.7l12.24,14.22H99L72.21,81.09C72.22,83.16,72.17,85.4,72,87.7Z" style="fill:none"/><path d="M72.09,76.34,104.68,93V81.74l-32.83-9.4C71.93,73.29,72,74.66,72.09,76.34Z" style="fill:none"/><path d="M24.79,64.55,1.92,62.37V72.42l17.71-1.69A71.43,71.43,0,0,1,24.79,64.55Z" style="fill:none"/><polygon points="55.88 66.72 56.41 66.87 104.68 53.06 104.68 41.83 55.88 66.72" style="fill:none"/><path d="M10.1,101.92h1a5.26,5.26,0,0,1-.18-.6Z" style="fill:none"/><path d="M29.74,59.78l20.65,5.49L1.92,40.53v11.8l27.37,7.83Z" style="fill:none"/><polygon points="60.55 67.97 57.39 67.13 54.57 67.4 60.55 67.97" style="fill:#fafafa"/><polygon points="56.41 66.87 55.88 66.72 54.57 67.4 56.41 66.87" style="fill:#fafafa"/><polygon points="55.28 66.57 54.57 67.4 55.55 66.64 55.28 66.57" style="fill:#fafafa"/><polygon points="54.46 66.35 54.57 67.4 54.67 66.4 54.46 66.35" style="fill:#fafafa"/><polygon points="53.89 66.2 54.57 67.4 54.21 66.28 53.89 66.2" style="fill:#fafafa"/><polygon points="54.87 66.45 54.57 67.4 55.07 66.51 54.87 66.45" style="fill:#fafafa"/><polygon points="52.57 65.84 54.57 67.4 53.43 66.07 52.57 65.84" style="fill:#fafafa"/><path d="M71.85,72.34c-.07-.89-.12-1.4-.12-1.4L60.55,68l-6-.57Z" style="fill:#fafafa"/><polygon points="54.57 67.4 55.88 66.72 55.55 66.64 54.57 67.4" style="fill:#fafafa"/><polygon points="54.67 66.4 54.57 67.4 54.87 66.45 54.67 66.4" style="fill:#fafafa"/><polygon points="57.39 67.13 56.41 66.87 54.57 67.4 57.39 67.13" style="fill:#fafafa"/><polygon points="55.07 66.51 54.57 67.4 55.28 66.57 55.07 66.51" style="fill:#fafafa"/><polygon points="53.43 66.07 54.57 67.4 53.89 66.2 53.43 66.07" style="fill:#fafafa"/><polygon points="54.21 66.28 54.57 67.4 54.46 66.35 54.21 66.28" style="fill:#fafafa"/><g style="opacity:0.811764705882353"><path d="M100.52,11.13A6.66,6.66,0,0,0,98,10.62a6.84,6.84,0,0,0-6,3.59,3.77,3.77,0,0,0-.83-.1,3.37,3.37,0,0,0,0,6.73,3.26,3.26,0,0,0,.83-.11,6.65,6.65,0,0,0,1.31,1.71,6.86,6.86,0,0,0,9.56-.12,8.85,8.85,0,0,0,1.88,1.17V7.2A9,9,0,0,0,100.52,11.13Z" style="fill:#e2f9ff"/></g><g style="opacity:0.811764705882353"><path d="M26.3,16.56a3.42,3.42,0,0,0-.45,0,2.88,2.88,0,0,0-.65.13,9,9,0,0,0-8-5.52,8,8,0,0,0-3.42.78c-2-4.36-6-7.33-10.55-7.33a10.88,10.88,0,0,0-1.29.09V32.18a10.9,10.9,0,0,0,1.29.08,10.54,10.54,0,0,0,4.68-1.11,12,12,0,0,0,2.85-2,8.54,8.54,0,0,0,6.44,3.08,8.28,8.28,0,0,0,5.4-2,10.2,10.2,0,0,0,2.62-3.46,4,4,0,0,0,1.1.16,4.41,4.41,0,0,0,3.89-2.63,5.75,5.75,0,0,0,.59-2.54C30.78,18.88,28.77,16.56,26.3,16.56Z" style="fill:#e2f9ff"/></g></g></svg>