<?xml version="1.0" encoding="UTF-8"?><svg xmlns="http://www.w3.org/2000/svg" viewBox="0 0 266.49 109.43"><defs><style>.d{fill:#fff;}.e{fill:#dff2fd;}.f{fill:#f5fbff;}</style></defs><g id="a"/><g id="b"><g id="c"><g><path class="d" d="M257.62,67.44c-6.22-4.37-14.78-5.15-21.68-1.98,.52-12.99-2.69-26.76-11.78-36.06-9.09-9.3-24.91-12.55-35.46-4.94C179.8,8.79,161.55-1.06,143.56,.09c-17.99,1.15-34.83,13.26-41.66,29.94-29.63-9.14-60.15,10.19-69.78,38.49-7.54-.88-15.51-1.69-22.43,1.41-6.92,3.11-12,11.66-8.61,18.45,1.11,2.22,2.96,3.97,4.89,5.53,14.08,11.28,33.2,13.37,51.2,14.68,11.91,.86,23.97,1.57,35.71-.59,11.74-2.16,23.29-7.51,30.74-16.84,5.14,7.77,15.64,9.46,24.91,10.35,28.05,2.69,56.67,4.51,84.56-.58,9.56-1.75,21.86-2.27,29.07-9.7,7.99-8.24,4.02-17.79-4.53-23.79Z"/><g><path class="f" d="M32.12,68.52c-7.54-.88-15.51-1.69-22.43,1.41-6.92,3.11-12,11.66-8.61,18.45,1.11,2.22,2.96,3.97,4.89,5.53,14.08,11.28,33.2,13.37,51.2,14.68,11.91,.86,23.97,1.57,35.71-.59,11.74-2.16,23.29-7.51,30.74-16.84,5.14,7.77,15.64,9.46,24.91,10.35,28.05,2.69,56.66,4.51,84.56-.58,9.56-1.75,21.86-2.27,29.07-9.7,7.99-8.24,4.02-17.79-4.53-23.79-6.22-4.37-14.78-5.15-21.68-1.98,.41-10.42-1.58-21.33-7.06-30.04,1.53,5.31,1.71,10.94-.16,16.1-4.07,11.25-16.15,15.3-26.34,9.88-8.88-4.72-14.6-14.42-15.58-24.43-2.2,19.37-18.87,36.13-38.22,38.44-19.35,2.31-39.5-10.05-46.21-28.35-1.67,9.44-7.8,17.99-16.2,22.6-8.4,4.61-18.91,5.19-27.76,1.53-4.53-1.87-8.81-5.03-10.65-9.57-2.6-6.4,.23-13.75,4.19-19.42,1.05-1.5,2.2-2.94,3.4-4.32-10.58,7.32-18.96,18.1-23.23,30.64Z"/><path class="e" d="M123.62,91.16c5.14,7.77,15.64,9.46,24.91,10.35,28.05,2.69,56.66,4.51,84.56-.58,9.56-1.75,21.86-2.27,29.07-9.7,7.99-8.24,4.02-17.79-4.53-23.79,1.74,7.71-3.98,15.71-11.16,19.02-7.18,3.31-15.42,3.12-23.31,2.63,5.22-2.98,9.13-8.16,10.57-13.99-13.78,13.6-36.97,16.4-53.59,6.47-2.54,5.02-7.74,8.11-12.94,10.27-14.06,5.86-30.11,6.42-43.59-.68Z"/><path class="e" d="M1.08,88.38c1.11,2.22,2.96,3.97,4.89,5.53,14.08,11.28,33.2,13.37,51.2,14.68,11.91,.86,23.97,1.57,35.71-.59,11.74-2.16,23.29-7.51,30.74-16.84-8.06-3.21-15.7-10.41-19.17-18.36,1.63,6.59-2.68,13.55-8.58,16.9-5.9,3.35-12.99,3.8-19.77,3.55-13.72-.51-28.24-4.08-37.46-14.24,3.31,8.8,11.31,15.26,20.13,18.5,8.82,3.24,18.44,3.63,27.83,3.16-3.25,2.15-7.24,2.82-11.11,3.24-24.84,2.71-52.93-2.73-74.41-15.51Z"/></g></g></g></g></svg>