<?xml version="1.0" encoding="UTF-8"?><svg xmlns="http://www.w3.org/2000/svg" viewBox="0 0 117.09 56.72"><defs><style>.d{fill:#fff;}.e{fill:#dff2fd;}.f{fill:#f5fbff;}</style></defs><g id="a"/><g id="b"><g id="c"><g><path class="d" d="M103.71,33.01c-.98-6.86-5.45-13.14-11.62-16.31-6.17-3.17-13.87-3.15-20.02,.05C68.27,6.72,57.7-.33,46.98,.01c-10.72,.34-20.82,8.04-23.99,18.29-6.76-.4-13.11,5.96-12.72,12.72C5.14,28.69-1.05,34.69,.15,40.19c1.2,5.5,7.8,8.66,13.28,7.33,13.69,10.13,32.99,12.09,48.43,4.91,12.26,8.13,31.06,3.46,38.08-9.47-.93,1.71,13.72,4.49,16.56-1.74,3.22-7.06-7.38-11.33-12.78-8.21Z"/><g><path class="f" d="M.15,40.19c1.2,5.5,7.8,8.66,13.28,7.33,13.69,10.13,32.99,12.09,48.43,4.91,12.26,8.13,31.06,3.46,38.08-9.47-.93,1.71,13.72,4.49,16.56-1.74,3.22-7.06-7.38-11.33-12.78-8.21-.98-6.86-5.45-13.14-11.62-16.31-1.73-.89-3.59-1.52-5.49-1.91,2.05,2.59,3.76,5.45,4.45,8.65,.96,4.41-.46,9.6-4.34,11.9-2.71,1.61-6.05,1.57-9.19,1.42-3.7-.18-8.11-.94-9.57-4.34-.49-1.15-.55-2.44-.77-3.67-1.12-6.24-7.29-11.16-13.62-10.86,3.27,.39,5.4,4.18,4.73,7.41-.67,3.22-3.48,5.68-6.59,6.78-3.1,1.1-6.49,1.06-9.77,.88-5.51-.31-11.59-1.3-15.02-5.62-2.69,2.88-7.5,3.49-10.83,1.37-1.63-1.04-2.78-2.66-3.42-4.46-.05-.15-.09-.36-.11-.61-1.54,2.15-2.44,4.73-2.28,7.39C5.14,28.69-1.05,34.69,.15,40.19Z"/><path class="e" d="M99.94,42.96c-.93,1.71,13.72,4.49,16.56-1.74,3.22-7.06-7.38-11.33-12.78-8.21,2.5-.31,5.26-.36,7.74,.11,1.38,.26,2.91,.78,3.48,2.07,.23,.52,.27,1.11,.23,1.67-.11,1.91-1.02,3.83-2.63,4.86-1.42,.91-3.19,1.05-4.88,1.12-2.27,.1-5.45,.18-7.72,.12Z"/><path class="e" d="M99.94,42.96c-7.02,12.93-25.82,17.6-38.08,9.47-15.44,7.18-34.74,5.23-48.43-4.91-5.47,1.33-12.07-1.83-13.28-7.33-1.2-5.5,4.99-11.5,10.12-9.18-3.7,.34-6.19,4.76-5.09,8.31,1.1,3.55,5.79,5.43,9.04,3.62-.79-2.01-1.18-4.18-1.14-6.33,1.43,3.13,5.38,4.12,8.82,4.22,3.32,.09,6.66-.29,9.87-1.13-.8,4.05-4.5,7.34-8.61,7.68,5.96,3.36,13.05,4.08,19.9,4.03,4.61-.03,9.4-.44,13.4-2.72,4-2.29,6.99-6.92,6.04-11.43,3.36,3.01,4.3,8.39,2.18,12.37,5.51,2.97,12.16,3.45,18.25,2.03,6.09-1.43,12.2-4.67,17-8.69Z"/></g></g></g></g></svg>