<?xml version="1.0" encoding="UTF-8"?><svg xmlns="http://www.w3.org/2000/svg" viewBox="0 0 249.79 119.44"><defs><style>.d{fill:#fff;}.e{fill:#dff2fd;}.f{fill:#f5fbff;}</style></defs><g id="a"/><g id="b"><g id="c"><g><path class="d" d="M24.28,72.78c2.71-.8,5.63-.89,8.36-.14-2.93-16.44,12.23-34.61,29.33-25.62,.81-7.49,4.13-14.96,10.18-19.45,6.05-4.49,15-5.32,21.08-.87-.2-8.17,4.62-15.97,11.37-20.59C111.34,1.51,119.76-.19,127.93,.02c9.01,.23,18.06,3.26,25.05,9.01,8.22,6.76,10.04,16.12,9.94,26.5,4.21-1.04,8.68-1.53,12.88-.44,11.96,3.1,14.83,19.14,12.35,29.53,7.37-1.87,15.21-3.51,22.48-1.27,7.27,2.23,13.48,9.72,11.62,17.09,4.13-1.92,8.37-3.85,12.9-4.3,4.53-.44,9.5,.87,12.32,4.44,3.81,4.82,2.53,12.08-.8,17.25-4.45,6.91-11.96,11.47-19.9,13.62-13.7,3.7-29.11,.38-40.08-8.62,2.05,1.69-14.12,11.9-15.69,12.5-6.57,2.52-13.25,5.13-20.39,3.73-7.7-1.51-14.52-6.29-19.42-12.41-15.41,13.6-40.69,14.22-56.75,1.39-14.35,13-38.51,13.25-53.13,.55-5.7,2.57-12.96,3.93-17.78-.06-3.69-3.05-4.64-8.94-2.09-13,2.55-4.06,8.27-5.75,12.62-3.75-1.58-5.18-.14-11.17,3.64-15.06,1.8-1.86,4.11-3.2,6.59-3.94Z"/><path class="f" d="M162.92,35.53c.1-10.38-1.71-19.75-9.94-26.5C145.98,3.28,136.93,.24,127.93,.02c-8.17-.21-16.59,1.5-23.34,6.11,13.68-2.63,28.92-2.69,40.31,5.32,2.9,2.04,5.5,4.58,7.32,7.63,2.04,3.43,3.04,7.43,3.14,11.42,.25,9.28-4.32,18.36-11.32,24.45-7,6.09-16.22,9.33-25.47,9.97,9.56,1.76,19.76-.27,27.91-5.55,8.16-5.28,16.33-14.13,16.43-23.85Z"/><path class="f" d="M93.22,26.71c-6.07-4.45-15.03-3.62-21.08,.87-6.05,4.49-9.37,11.96-10.18,19.45-.54,5.02,4.5,9.07,9.06,11.24s9.86,2.43,14.82,1.48c-4.94-.27-9.12-4.1-11.25-8.56-2.72-5.7-2.59-12.81,.79-18.15,3.38-5.34,11.63-7.55,17.83-6.33Z"/><g><path class="f" d="M32.64,72.64c-2.73-.75-5.65-.66-8.36,.14-2.48,.74-4.78,2.08-6.59,3.94-3.77,3.89-5.22,9.88-3.64,15.06-4.35-2-10.07-.31-12.62,3.75-2.55,4.06-1.61,9.94,2.09,13,4.82,3.99,12.08,2.63,17.78,.06,14.62,12.7,38.78,12.45,53.13-.55,16.06,12.83,41.34,12.21,56.75-1.39,4.9,6.12,11.73,10.9,19.42,12.41,7.14,1.4,13.82-1.22,20.39-3.73,1.56-.6,17.74-10.81,15.69-12.5,10.97,9.01,26.38,12.32,40.08,8.62,7.94-2.14,15.44-6.7,19.9-13.62,3.33-5.17,4.61-12.42,.8-17.25-2.82-3.57-7.79-4.89-12.32-4.44-4.53,.44-8.77,2.38-12.9,4.3,1.86-7.37-4.35-14.86-11.62-17.09-7.27-2.23-15.11-.6-22.48,1.27,2.48-10.38-.39-26.43-12.35-29.53-2.49-.64-5.06-.73-7.62-.48,2.13,8.62,1.72,18.12-2.86,25.68-4.85,7.99-15.02,13.01-23.91,10.17-8.43,8.38-20.64,12.8-32.48,11.76-11.84-1.04-23.09-7.53-29.93-17.25-6.42,4.8-16.38,4.8-22.01-.89-5.83-5.89-3.37-12.24-.62-18.55,.07-.16,.12-.32,.18-.47-14.72-3.1-26.51,12.93-23.89,27.6Z"/><path class="e" d="M24.28,72.78c2.71-.8,5.63-.89,8.36-.14-2.62-14.67,9.17-30.7,23.89-27.6-5.48,.6-10.65,3.57-13.95,7.98-3.3,4.41-4.85,10.02-4.68,15.53,.07,2.14,.39,4.3,1.29,6.25,2.36,5.14,8.08,7.74,13.45,9.54-4.94,1.37-10.11-1.05-14.36-3.91-4.25-2.87-9-6.52-13.99-7.64Z"/></g><path class="e" d="M186.68,102.82c10.97,9.01,26.38,12.32,40.08,8.62,7.94-2.14,15.44-6.7,19.9-13.62,3.33-5.17,4.61-12.42,.8-17.25,.5,9.73-8.6,18.35-17.84,21.43-9.25,3.08-19.51,1.29-28.49-2.49-4.31-1.81-8.52-4.14-11.62-7.64-3.1-3.5-4.96-8.34-4-12.92-3.15,7.24-1.44,16.4,1.18,23.86Z"/><path class="e" d="M131.18,106.64c-15.41,13.6-40.69,14.22-56.75,1.39-14.35,13-38.51,13.25-53.13,.55-5.7,2.57-12.96,3.93-17.78-.06-3.69-3.05-4.64-8.94-2.09-13,2.8,7.93,14.54,10.72,21.13,5.49-2.23-2.94-3.48-6.61-3.52-10.3,7.86,8.12,19.88,11.97,30.99,9.94,11.11-2.03,20.99-9.9,25.46-20.27,.6,6.61-.02,13.33-1.82,19.72,15.38,14.08,39.41,16.86,57.52,6.54Z"/></g></g></g></svg>