<svg xmlns="http://www.w3.org/2000/svg" viewBox="0 0 1835.73 207.93"><path d="M1835.73,207.93c-10.89-33-44.63-56.16-83.43-54.37a87.57,87.57,0,0,0-35.43,9.4c-2.7.17-5.37.44-8,.85-.28-.36-.62-.68-.91-1-18.86-27.76-52-45.93-89.49-45.88a122.32,122.32,0,0,0-12.62-43.25C1582.51,27.94,1531.4-2.51,1473.6.16a145.85,145.85,0,0,0-79.86,27.92,134,134,0,0,0-40.5,47.55,114.84,114.84,0,0,0-26.61-9.11,116.61,116.61,0,0,0-29.24-2.34c-46.61,2.16-85.17,31.1-99.26,70a97.74,97.74,0,0,0-5.72-13.72c-19.25-37.68-61.4-62.79-109.06-60.59a120.36,120.36,0,0,0-65.86,23,110.86,110.86,0,0,0-33.4,39.21A94.81,94.81,0,0,0,938,112.71c-33.81,1.56-62.48,20.22-76.8,46.55a91.23,91.23,0,0,0-49.57-14.33,100.65,100.65,0,0,0-10.4-35.67C782,71.58,739.87,46.47,692.2,48.67a120.35,120.35,0,0,0-65.85,23A110.76,110.76,0,0,0,593,110.9a94.88,94.88,0,0,0-46.05-9.43c-35.63,1.64-65.55,22.27-79,50.85-.13-.93-.25-1.86-.41-2.79-7.23-41.69-40.05-78.16-86.23-90.18a120.31,120.31,0,0,0-69.71,2.48A110.88,110.88,0,0,0,268,89.39a95,95,0,0,0-41.19-22.65C178.48,54.15,129.75,80.49,118,125.56c-.4,1.52-.67,3.05-1,4.57a53,53,0,0,0-7,6.93C87,132.69,64.37,140.46,50,156c-.76-.25-1.52-.51-2.31-.72C27,149.93,6.12,161.22,1.09,180.53a34.82,34.82,0,0,0,4.45,27.4Z" style="fill:#fff"/></svg>