<svg xmlns="http://www.w3.org/2000/svg" viewBox="0 0 1930.31 416.05"><g style="opacity:0.2"><path d="M.08,238.68c2.09-45.05,43-79.77,91.33-77.53A91.61,91.61,0,0,1,128.59,171c2.84.19,5.64.46,8.39.89.29-.38.65-.71,1-1.08,19.78-29.13,54.58-48.21,93.91-48.15a128.32,128.32,0,0,1,13.24-45.4c24.5-47.95,78.14-79.9,138.8-77.1a153.06,153.06,0,0,1,83.81,29.3,140.79,140.79,0,0,1,42.5,49.89,120.45,120.45,0,0,1,27.92-9.55,121.88,121.88,0,0,1,30.69-2.45C617.72,69.62,658.18,100,673,140.86a102.83,102.83,0,0,1,6-14.4c20.2-39.54,64.43-65.9,114.46-63.58A126.09,126.09,0,0,1,862.53,87a116.16,116.16,0,0,1,35.05,41.15,99.7,99.7,0,0,1,48.33-9.9c35.48,1.64,65.57,21.22,80.6,48.85a95.74,95.74,0,0,1,52-15,105.7,105.7,0,0,1,10.92-37.43c20.2-39.54,64.43-65.89,114.45-63.58A126.21,126.21,0,0,1,1273,75.24a116.21,116.21,0,0,1,35,41.14,99.62,99.62,0,0,1,23-7.88,100.68,100.68,0,0,1,25.31-2c37.38,1.73,68.78,23.38,82.88,53.37.14-1,.27-2,.44-2.93,7.58-43.75,42-82,90.49-94.63a126.16,126.16,0,0,1,73.16,2.6A116.1,116.1,0,0,1,1649,93.81a99.28,99.28,0,0,1,19.66-14.35A100.63,100.63,0,0,1,1692.25,70c50.76-13.2,101.89,14.44,114.2,61.74.41,1.6.7,3.19,1,4.79a55.26,55.26,0,0,1,7.31,7.28c24.25-4.59,48,3.57,63,19.92.8-.27,1.59-.54,2.43-.76,21.75-5.66,43.66,6.19,48.93,26.46s-8.08,41.28-29.84,46.94a42.86,42.86,0,0,1-15.65,1.09,69.41,69.41,0,0,1-31.3,26.55,63.6,63.6,0,0,1-12.13,11.16c-2.22,26.82-22.35,51-51.6,58.65a69.91,69.91,0,0,1-57.35-9.62c-16.58,26-43.47,46.43-76.79,55.1a129.78,129.78,0,0,1-85.67-6.73c-7.19,19.32-24.14,35.29-46.65,41.15-35.41,9.21-71.07-10.07-79.66-43.07-.31-1.2-.5-2.41-.73-3.61q-4.47-.87-8.79-2.14c-8.42,8-19.2,19.91-59.93,25.94-27.85,4.12-53.86-2.54-70.52-18.66a131.87,131.87,0,0,1-153.67-13.31c-12.59,16.33-33.51,26.57-56.74,25.49-23.48-1.08-43.55-13.43-54.51-31.15a63.65,63.65,0,0,1-11.14,4.83c-10.07,25-36.47,42.13-66.66,40.73a69.89,69.89,0,0,1-51.93-26.17c-23.54,19.93-55.27,31.47-89.67,29.88A129.78,129.78,0,0,1,738.4,370.7c-12.58,16.33-33.5,26.56-56.74,25.49a69.64,69.64,0,0,1-34.15-10.68,85.06,85.06,0,0,1-61.83,22c-26-1.2-48.66-13.51-63-31.73C494.17,400,455.68,414,414,412a157.31,157.31,0,0,1-96.8-38.57c-15.27,19.8-40.64,32.21-68.81,30.91-44.33-2.05-78.71-37.2-76.8-78.5.07-1.5.29-3,.45-4.45-3.25-1.74-6.39-3.61-9.42-5.64C150,322,133.2,332,83.87,324.31S-2,283.74.08,238.68Z" style="fill:#fff"/></g></svg>